<?xml version="1.0" standalone="no"?>
<!DOCTYPE svg PUBLIC "-//W3C//DTD SVG 20010904//EN"
 "http://www.w3.org/TR/2001/REC-SVG-20010904/DTD/svg10.dtd">
<svg version="1.0" xmlns="http://www.w3.org/2000/svg"
 width="900.000000pt" height="900.000000pt" viewBox="0 0 900.000000 900.000000"
 preserveAspectRatio="xMidYMid meet">
<metadata>
Created by potrace 1.11, written by Peter Selinger 2001-2013
</metadata>
<g transform="translate(0.000000,900.000000) scale(0.100000,-0.100000)"
fill="#000000" stroke="none">
<path d="M4822 8524 c-12 -8 -19 -21 -16 -29 8 -20 -7 -24 -108 -29 -48 -2
-111 -11 -140 -19 -29 -8 -78 -20 -108 -27 -30 -7 -77 -26 -105 -43 -27 -16
-56 -30 -62 -30 -7 0 -13 -6 -13 -12 0 -14 -30 -16 -47 -3 -7 5 -13 5 -17 0
-3 -5 -18 -9 -33 -9 -15 0 -29 -6 -31 -12 -2 -6 -10 -11 -18 -11 -8 0 -14 -6
-14 -14 0 -16 -129 -34 -139 -18 -3 5 -13 11 -21 14 -21 7 -142 -38 -152 -56
-5 -9 -16 -16 -25 -16 -9 0 -21 -7 -27 -15 -16 -21 -53 -27 -60 -9 -4 10 -11
12 -23 6 -10 -5 -36 -7 -58 -6 -22 2 -47 0 -55 -3 -22 -9 -76 -21 -107 -25 -7
-1 -15 -8 -17 -15 -4 -10 -11 -11 -25 -4 -10 6 -21 8 -23 5 -11 -10 -111 -43
-119 -39 -4 3 -10 1 -14 -5 -4 -6 -11 -8 -16 -5 -5 4 -9 -1 -9 -9 0 -9 -7 -16
-15 -16 -20 0 -53 -19 -83 -48 -15 -14 -32 -22 -43 -19 -12 3 -19 0 -19 -9 0
-10 -6 -11 -22 -5 -13 4 -30 5 -38 1 -26 -12 -66 -34 -105 -60 -35 -22 -54
-26 -132 -32 -13 -1 -23 -5 -23 -9 0 -16 -33 -39 -70 -49 -22 -6 -44 -19 -50
-30 -6 -11 -26 -22 -48 -26 -20 -3 -47 -16 -59 -27 -13 -11 -23 -17 -23 -12 0
4 -11 -3 -25 -17 -18 -18 -34 -24 -60 -23 -19 1 -35 -2 -35 -8 0 -5 -7 -7 -15
-3 -8 3 -15 2 -15 -2 0 -4 -9 -8 -20 -9 -10 -1 -35 -9 -54 -18 -19 -9 -39 -14
-45 -11 -5 4 -22 -5 -38 -19 -71 -63 -110 -94 -114 -90 -3 2 -13 -9 -24 -25
-19 -28 -75 -68 -75 -54 0 4 -7 -1 -15 -12 -8 -10 -15 -15 -15 -11 0 7 -26
-15 -96 -83 -32 -31 -74 -93 -74 -110 0 -9 -19 -27 -42 -40 -23 -13 -55 -36
-70 -52 -15 -15 -32 -28 -38 -28 -6 0 -9 -4 -5 -9 7 -13 -26 -31 -51 -27 -10
2 -25 -1 -32 -7 -8 -6 -22 -12 -33 -14 -22 -3 -60 -34 -54 -43 2 -4 -25 -13
-61 -20 -47 -10 -69 -20 -76 -34 -6 -11 -22 -29 -35 -39 -12 -10 -23 -25 -23
-33 0 -8 -7 -17 -16 -21 -8 -3 -13 -11 -10 -19 3 -7 1 -14 -4 -16 -5 -2 -10
-10 -12 -18 -2 -8 -7 -18 -11 -21 -5 -3 -11 -21 -13 -39 -7 -38 -42 -77 -67
-72 -9 2 -17 -2 -17 -8 0 -6 -5 -8 -10 -5 -6 3 -13 -1 -16 -9 -3 -9 -13 -16
-20 -16 -17 0 -119 -98 -111 -106 3 -4 -12 -24 -34 -45 -22 -21 -38 -39 -35
-39 3 0 -5 -11 -17 -23 -12 -13 -24 -23 -27 -23 -11 2 -49 -31 -43 -38 4 -3
-3 -13 -15 -22 -12 -8 -20 -20 -17 -25 4 -5 1 -9 -4 -9 -6 0 -11 -12 -11 -26
0 -14 -4 -23 -9 -20 -14 9 -24 -52 -25 -154 -1 -52 -5 -106 -10 -120 -11 -31
-61 -80 -81 -80 -9 0 -13 -5 -10 -11 4 -6 -1 -16 -11 -23 -11 -8 -19 -29 -20
-52 -1 -22 -5 -55 -8 -74 -2 -19 -5 -41 -5 -47 -1 -7 -8 -13 -17 -13 -9 0 -18
-9 -21 -20 -3 -11 -9 -17 -14 -14 -5 2 -15 -11 -23 -31 -8 -19 -19 -35 -24
-35 -5 0 -9 -6 -9 -12 -2 -34 -14 -102 -20 -111 -22 -37 -17 -304 7 -332 11
-14 11 -21 -2 -43 -8 -15 -14 -35 -13 -44 2 -10 -1 -20 -5 -23 -5 -3 -7 -14
-5 -25 2 -11 1 -20 -3 -20 -4 0 -8 -8 -9 -17 -1 -19 -10 -58 -13 -58 -1 0 -3
-12 -4 -26 -2 -14 -7 -32 -12 -40 -5 -8 -10 -104 -11 -214 -1 -110 -5 -216 -8
-235 -17 -115 -15 -178 7 -226 12 -27 23 -69 24 -94 2 -61 6 -73 27 -88 9 -7
15 -17 12 -22 -3 -4 0 -10 7 -12 7 -3 8 -9 3 -19 -16 -24 -18 -81 -11 -261 2
-71 5 -79 30 -99 14 -11 33 -36 41 -55 8 -19 19 -34 24 -34 6 0 11 -7 11 -15
0 -8 9 -15 20 -15 24 0 27 -35 5 -64 -20 -27 -10 -74 24 -106 35 -34 43 -53
48 -115 3 -49 10 -100 13 -100 3 0 11 -40 13 -65 1 -13 17 -40 34 -58 18 -19
33 -38 33 -43 0 -5 6 -9 14 -9 8 0 17 -7 20 -16 4 -9 10 -14 13 -10 4 4 14 -6
23 -22 23 -44 67 -92 83 -92 15 0 52 -46 52 -65 1 -15 28 -79 37 -85 4 -3 9
-15 11 -25 7 -37 28 -78 55 -110 53 -63 60 -73 55 -79 -4 -3 -1 -6 6 -6 16 0
71 -57 72 -75 1 -15 4 -28 9 -42 1 -5 2 -12 1 -16 -1 -4 6 -10 14 -13 8 -3 12
-10 9 -15 -3 -5 0 -9 7 -9 7 0 10 -3 6 -6 -7 -8 17 -34 32 -34 12 0 82 -81 76
-90 -2 -3 5 -13 16 -21 18 -12 50 -69 53 -91 1 -5 4 -7 8 -5 10 3 47 -65 42
-75 -2 -4 4 -9 15 -13 11 -3 22 -13 25 -21 3 -8 10 -13 14 -10 5 3 25 -10 45
-28 20 -18 39 -31 41 -29 7 7 40 -60 38 -74 -3 -14 32 -35 42 -26 6 6 10 -13
7 -31 -1 -5 5 -6 12 -3 16 6 49 -34 61 -71 4 -12 12 -20 17 -17 5 4 9 -1 9 -9
0 -8 16 -32 35 -53 19 -21 35 -32 35 -24 0 9 6 11 18 6 21 -9 77 -18 115 -19
21 -1 27 -6 27 -24 0 -15 7 -26 20 -29 10 -3 22 -14 25 -24 4 -10 10 -19 15
-19 5 0 12 -9 15 -20 3 -11 13 -20 20 -20 9 0 12 -6 8 -17 -4 -11 -3 -14 5 -9
11 6 17 -5 13 -26 0 -5 6 -8 14 -8 8 0 15 -4 15 -10 0 -5 6 -10 13 -10 7 0 18
-10 25 -21 l14 -21 14 20 c9 13 21 19 30 15 9 -3 19 -1 23 5 4 7 12 8 21 1 13
-8 10 -14 -14 -35 l-28 -25 27 7 c25 6 26 5 16 -14 -9 -17 -8 -23 9 -35 11 -7
17 -17 13 -20 -3 -4 -1 -7 6 -7 7 0 10 -3 7 -8 -6 -10 15 -37 37 -45 9 -3 16
-10 15 -14 -2 -5 7 -19 20 -33 12 -13 22 -27 22 -30 0 -4 19 -15 43 -26 23
-10 44 -21 47 -24 3 -3 25 -6 50 -8 25 -1 52 -5 60 -9 8 -3 21 -7 29 -9 8 -1
17 -7 20 -12 8 -12 34 -19 96 -27 73 -9 79 -10 93 -18 6 -5 12 -5 12 -2 0 3
14 -2 30 -12 17 -9 30 -21 30 -25 0 -4 6 -8 14 -8 12 0 31 -34 38 -70 2 -8 18
-29 36 -47 18 -18 41 -48 51 -66 10 -17 24 -33 32 -33 8 -1 22 -2 32 -3 9 0
17 -7 17 -14 0 -15 48 -37 81 -37 46 0 155 -17 176 -28 11 -6 43 -19 69 -28
27 -9 57 -23 67 -32 9 -8 17 -12 17 -8 0 4 8 3 18 -3 32 -17 106 -21 132 -8
16 8 38 10 60 6 19 -4 38 -5 42 -3 5 3 8 1 8 -4 0 -5 17 -7 38 -5 20 3 80 6
132 8 52 2 106 7 120 11 42 11 263 11 295 -1 37 -14 393 -12 421 2 10 5 33 9
49 8 17 -1 39 3 50 9 11 5 70 10 130 11 103 2 162 15 151 33 -3 4 6 9 19 10
33 2 106 42 99 53 -3 5 9 12 26 15 17 4 33 11 36 15 3 5 10 7 15 4 5 -4 15 -3
21 1 7 5 35 9 63 11 66 3 75 5 75 14 0 5 32 18 70 30 39 11 70 26 70 31 0 6 9
8 20 5 10 -3 24 1 31 9 6 8 18 14 26 14 8 0 11 5 7 11 -4 7 -1 10 7 7 7 -2 24
6 36 18 13 14 30 21 38 17 9 -3 23 1 33 10 23 20 105 62 115 59 5 -2 17 8 27
21 14 18 28 23 61 22 31 -1 49 5 67 22 13 12 28 20 32 18 5 -3 15 2 23 10 9 8
20 15 25 15 8 0 23 11 69 50 7 5 18 10 25 10 7 0 22 7 32 15 10 8 22 12 26 10
12 -7 81 16 98 33 9 10 27 30 40 46 12 16 22 25 22 20 0 -5 4 -4 8 1 12 18 61
45 79 45 19 0 53 32 53 50 0 6 5 10 10 10 6 0 23 9 39 21 15 11 36 22 47 24
10 2 19 4 19 5 0 1 10 3 23 6 13 2 36 11 52 19 17 9 32 15 35 15 3 0 20 7 38
17 28 14 61 23 143 36 12 2 45 27 74 56 28 28 55 49 60 46 8 -5 26 11 99 89
19 20 43 39 54 42 10 3 27 26 37 50 11 24 24 44 30 44 5 0 10 6 10 13 0 7 8
13 18 14 9 1 31 4 47 7 17 3 51 6 78 7 26 1 47 5 47 9 0 4 6 7 13 7 6 0 38 12
69 27 31 15 66 29 78 31 25 5 39 19 70 70 24 40 70 90 70 77 0 -4 4 -2 8 4 4
6 20 15 37 21 24 8 34 20 48 59 16 43 84 124 105 124 20 1 33 21 42 69 10 56
36 117 57 139 7 7 14 18 14 23 1 5 2 17 3 27 1 9 6 32 10 49 4 18 7 36 6 39
-1 4 4 11 12 15 7 5 8 9 3 9 -14 0 -16 71 -3 87 6 7 12 50 14 95 3 72 9 123
14 123 2 0 11 38 12 53 1 6 5 12 10 12 5 0 7 4 4 9 -4 5 -1 11 6 13 7 3 12 30
13 76 1 40 5 75 8 79 4 3 7 13 7 20 0 19 22 41 37 36 7 -3 20 11 29 31 10 19
22 32 27 29 6 -3 7 -1 3 5 -3 6 -2 13 2 16 5 3 8 29 7 58 -1 29 2 59 7 65 7 9
5 15 -6 19 -9 3 -16 11 -16 16 0 6 7 8 15 4 8 -3 14 -2 14 2 -1 4 0 9 1 12 1
3 3 19 5 35 8 69 15 87 39 106 15 11 24 24 21 29 -3 5 0 12 6 15 5 4 8 13 6
19 -3 7 -1 19 3 26 5 7 5 23 0 35 -4 12 -4 29 1 38 6 9 6 17 2 17 -4 0 -7 47
-6 104 2 81 -1 107 -13 117 -10 9 -11 15 -3 25 8 10 7 19 -5 35 -11 16 -12 27
-5 41 5 10 8 18 5 18 -3 0 -1 13 4 30 5 16 5 32 2 34 -9 5 -7 220 2 234 3 6 2
13 -4 17 -6 4 -8 10 -5 15 2 4 -1 28 -9 52 -7 24 -11 53 -10 63 2 11 -1 32 -7
46 -14 36 -17 82 -6 97 5 6 6 12 1 12 -5 0 -10 28 -11 62 -1 35 -4 108 -6 163
-4 107 -14 182 -26 189 -11 7 -7 139 4 143 6 2 9 31 8 65 -2 35 -4 105 -6 156
-2 52 -8 97 -13 100 -5 4 -18 20 -28 36 -18 28 -18 60 -2 191 1 11 -4 35 -11
54 -7 18 -13 50 -13 70 0 20 -11 56 -24 81 -32 62 -39 92 -41 190 -1 47 -7 96
-14 110 -7 14 -20 41 -31 60 -10 19 -16 38 -13 43 2 4 0 7 -4 7 -5 0 -8 17 -8
38 0 20 -5 46 -12 58 -7 11 -10 24 -6 28 4 4 3 10 -2 14 -6 4 -21 31 -34 60
-14 28 -28 52 -33 52 -4 0 -8 5 -8 10 0 6 -8 20 -19 31 -17 18 -24 39 -37 103
-3 11 -9 25 -15 33 -6 7 -8 13 -4 13 4 0 1 7 -6 16 -7 9 -14 26 -15 38 0 11
-20 41 -42 65 -23 24 -42 50 -42 57 0 8 -9 33 -19 57 -29 65 -41 107 -30 107
17 0 9 15 -26 53 -19 20 -33 37 -30 37 5 0 -7 14 -42 52 -41 44 -101 85 -136
93 -14 4 -29 15 -32 25 -12 39 -148 160 -179 160 -6 0 -20 11 -30 25 -10 13
-22 22 -27 19 -5 -3 -9 0 -9 5 0 6 -6 11 -14 11 -8 0 -17 7 -20 16 -3 9 -12
14 -19 11 -14 -4 -47 30 -47 49 0 7 -9 18 -20 24 -11 6 -20 17 -20 24 0 7 -18
19 -41 26 -49 17 -83 45 -73 61 4 7 3 9 -4 5 -6 -3 -19 5 -30 19 -11 13 -22
21 -26 18 -3 -3 -6 0 -6 8 0 8 -16 25 -35 38 -19 13 -32 27 -29 32 6 11 -80
10 -116 0 -26 -8 -70 6 -70 21 0 4 -6 8 -14 8 -8 0 -21 9 -29 20 -8 11 -17 17
-20 13 -4 -3 -7 -2 -7 4 0 6 -8 9 -19 6 -11 -3 -24 3 -32 14 -8 10 -25 19 -39
21 -14 1 -32 5 -40 9 -30 13 -111 22 -125 14 -19 -11 -45 -11 -45 0 0 6 -7 9
-15 5 -8 -3 -18 2 -23 10 -5 9 -12 15 -15 15 -33 -3 -75 19 -117 61 -28 27
-50 54 -50 59 0 5 -9 9 -20 9 -11 0 -20 7 -20 15 0 15 -3 17 -37 18 -10 1 -23
8 -28 15 -6 8 -23 12 -40 9 -30 -4 -75 10 -75 23 0 3 -12 7 -27 7 -16 0 -76
17 -136 37 -106 36 -167 45 -167 26 0 -5 -10 -10 -21 -10 -16 0 -20 5 -16 20
4 15 0 20 -14 20 -10 0 -19 -4 -19 -10 0 -5 -11 -10 -25 -10 -14 0 -25 -6 -25
-12 0 -16 -39 -35 -63 -30 -12 2 -16 9 -13 19 13 32 -13 43 -104 43 -47 0 -90
3 -94 7 -18 18 -193 33 -379 32 -38 0 -75 5 -83 12 -8 6 -14 8 -14 4 0 -4 -6
-3 -13 3 -10 9 -19 7 -35 -4z m-495 -201 c-3 -3 -11 -2 -17 2 -8 5 -7 11 2 22
12 15 13 14 16 -1 2 -10 1 -20 -1 -23z"/>
<path d="M5578 8453 c7 -3 16 -2 19 1 4 3 -2 6 -13 5 -11 0 -14 -3 -6 -6z"/>
</g>
</svg>
